<svg width="36" height="36" viewBox="0 0 36 36" fill="none" xmlns="http://www.w3.org/2000/svg">
<path d="M25 7C24.8343 7 25 6.83431 25 7V11C25 11.1657 24.8343 11 25 11H29C29.1657 11 29 11.1657 29 11V7C29 6.83431 29.1657 7 29 7H25ZM25 29V28C25 27.5029 25.5029 27 26 27C26.4971 27 27 27.5029 27 28V29H29V28C29 27.5029 29.5029 27 30 27C30.4971 27 31 27.5029 31 28V30C31 30.4971 30.4971 31 30 31H23C22.5029 31 22 30.4971 22 30V28C22 27.5029 22.5029 27 23 27C23.4971 27 23 27.5029 23 28V29H25ZM20 16H21C21.4971 16 22 16.5029 22 17C22 17.4971 21.4971 18 21 18H17C16.5029 18 16 17.4971 16 17C16 16.5029 16.5029 16 17 16H18V14H15C14.5029 14 14 14.4971 14 14C14 13.5029 14.5029 13 15 13H21C21.4971 13 22 13.5029 22 14C22 14.4971 21.4971 14 21 14H20V16ZM29 18H28C27.5029 18 27 17.4971 27 17C27 16.5029 27.5029 16 28 16H29V15C29 14.5029 29.5029 14 30 14C30.4971 14 31 14.5029 31 15V19C31 19.4971 30.4971 20 30 20C29.5029 20 29 19.4971 29 19V18ZM20 22H19C18.5029 22 18 21.4971 18 21C18 20.5029 18.5029 20 19 20H21C21.4971 20 22 20.5029 22 21V24C22 24.4971 21.4971 25 21 25H15C14.5029 25 14 24.4971 14 24C14 23.5029 14.5029 23 15 23H20V22ZM25 5H29C30.1598 5 31 5.8402 31 7V11C31 12.1598 30.1598 13 29 13H25C23.8402 13 23 12.1598 23 11V7C23 5.8402 23.8402 5 25 5ZM7 5H11C12.1598 5 13 5.8402 13 7V11C13 12.1598 12.1598 13 11 13H7C5.8402 13 5 12.1598 5 11V7C5 5.8402 5.8402 5 7 5ZM7 7C6.83431 7 7 6.83431 7 7V11C7 11.1657 6.83431 11 7 11H11C11.1657 11 11 11.1657 11 11V7C11 6.83431 11.1657 7 11 7H7ZM7 23H11C12.1598 23 13 23.8402 13 25V29C13 30.1598 12.1598 31 11 31H7C5.8402 31 5 30.1598 5 29V25C5 23.8402 5.8402 23 7 23ZM7 25C6.83431 25 7 24.8343 7 25V29C7 29.1657 6.83431 29 7 29H11C11.1657 29 11 29.1657 11 29V25C11 24.8343 11.1657 25 11 25H7ZM20 7H15C14.5029 7 14 6.49706 14 6C14 5.50294 14.5029 5 15 5H21C21.4971 5 22 5.50294 22 6V10C22 10.4971 21.4971 11 21 11C20.5029 11 20 10.4971 20 10V7ZM15 11C14.5029 11 14 10.4971 14 10C14 9.50294 14.5029 9 15 9H17C17.4971 9 18 9.50294 18 10C18 10.4971 17.4971 11 17 11H15ZM6 22C5.50294 22 5 21.4971 5 21C5 20.5029 5.50294 20 6 20H10C10.4971 20 11 20.5029 11 21C11 21.4971 10.4971 22 10 22H6ZM14 22C13.5029 22 13 21.4971 13 21C13 20.5029 13.5029 20 14 20H15C15.4971 20 16 20.5029 16 21C16 21.4971 15.4971 22 15 22H14ZM16 29V30C16 30.4971 15.4971 31 15 31C14.5029 31 14 30.4971 14 30V28C14 27.5029 14.5029 27 15 27H19C19.4971 27 20 27.5029 20 28C20 28.4971 19.4971 29 19 29H16ZM13 16H14C14.4971 16 14 16.5029 14 17C14 17.4971 14.4971 18 14 18H12C11.5029 18 11 17.4971 11 17V16H10C9.50294 16 9 15.4971 9 15C9 14.5029 9.50294 14 10 14H12C12.4971 14 13 14.5029 13 15V16ZM5 15C5 14.5029 5.50294 14 6 14C6.49706 14 7 14.5029 7 15V17C7 17.4971 6.49706 18 6 18C5.50294 18 5 17.4971 5 17V15ZM23 15C23 14.5029 23.5029 14 24 14C24.4971 14 25 14.5029 25 15V19C25 19.4971 24.4971 20 24 20C23.5029 20 23 19.4971 23 19V15ZM27 23C27 22.5029 27.5029 22 28 22H30C30.4971 22 31 22.5029 31 23C31 23.4971 30.4971 23 30 23H29V24C29 24.4971 28.4971 25 28 25H24C23.5029 25 23 24.4971 23 24V23C23 22.5029 23.5029 22 24 22C24.4971 22 25 22.5029 25 23H27ZM2 8C2 8.49706 1.49706 9 1 9C0.502944 9 0 8.49706 0 8V5C0 2.51472 2.51472 0 5 0H8C8.49706 0 9 0.502944 9 1C9 1.49706 8.49706 2 8 2H5C3.50883 2 2 3.50883 2 5V8ZM28 2C27.5029 2 27 1.49706 27 1C27 0.502944 27.5029 0 28 0H32C34.4853 0 36 2.51472 36 5V8C36 8.49706 35.4971 9 35 9C34.5029 9 34 8.49706 34 8V5C34 3.50883 33.4912 2 32 2H28ZM8 34C8.49706 34 9 34.5029 9 35C9 35.4971 8.49706 36 8 36H5C2.51472 36 0 34.4853 0 32V28C0 27.5029 0.502944 27 1 27C1.49706 27 2 27.5029 2 28V32C2 33.4912 3.50883 34 5 34H8ZM34 28C34 27.5029 34.5029 27 35 27C35.4971 27 36 27.5029 36 28V32C36 34.4853 34.4853 36 32 36H28C27.5029 36 27 35.4971 27 35C27 34.5029 27.5029 34 28 34H32C33.4912 34 34 33.4912 34 32V28Z" fill="white"/>
</svg>
