<svg width="36" height="36" viewBox="0 0 36 36" fill="none" xmlns="http://www.w3.org/2000/svg">
  <path
    d="M35.9598 18C35.9598 20.5935 35.967 23.3935 35.9598 25.9943C35.9453 29.7614 34.0918 32.018 30.9685 33.9886C29.1393 35.1332 27.1335 35.9871 24.9789 35.9871C20.2651 35.9871 15.7172 36.0161 11.0033 35.9871C7.72819 35.9654 4.72968 34.4241 2.49564 31.99C1.11473 30.4831 0.261078 29.0438 0.0224915 26.9936C-0.0281178 26.5589 0.0224915 26.4289 0.0224915 25.9943C0.0224915 20.8289 0.0152616 15.1711 0.0224915 10.0057C0.0441811 6.23133 1.89047 3.98196 5.01378 2.01145C6.85741 0.859569 8.83436 0.0128792 11.0033 0.0128792C15.7028 0.0128792 20.2795 -0.0160989 24.9789 0.0128792C28.2686 0.0346127 31.7292 1.56137 33.9633 4.01002C35.3297 5.50963 35.7284 6.97797 35.9598 9.00644C36.0538 9.80334 35.9526 10.2154 35.9598 11.005C35.967 13.2218 35.9598 15.7904 35.9598 18ZM1.5 18C1.5 20.6587 1.49277 23.3355 1.5 25.9943C1.50723 27.8199 2.77895 30.1831 4.02249 31.4871C5.6926 33.2331 8.61024 34.4855 11.0033 34.5C15.7534 34.529 20.2289 34.5 24.9789 34.5C26.5117 34.5 28.526 33.6396 30.5225 32.4871C33.0181 31.0465 34.5 28.9356 34.5 25.9943C34.5 20.7637 34.5 15.2363 34.5 10.0057C34.5 8.19459 33.2588 5.78389 32.0225 4.48712C30.3668 2.73395 27.3859 1.51449 25 1.5C20.1993 1.46378 15.804 1.5 11.0033 1.5C9.50674 1.5 7.32387 2.24818 6.02249 2.98712C3.54264 4.42154 1.49277 7.06445 1.5 10.0057C1.5 12.5775 1.5 15.4282 1.5 18Z"
    fill="#243327"
  />
  <path
    d="M18 28.0043C12.455 28.0043 7.99144 23.6043 8.00002 18.0043C8.0086 12.5522 12.4979 7.99564 18 8.00434C23.5279 8.00434 28.0086 12.4565 28 18.0043C27.9914 23.5 23.5193 28.0043 18 28.0043ZM18 26.5C22.5 26.5 26.5 23.0043 26.2353 18.0043C26.2353 12.3116 21.7596 9.76903 18 9.76903C13.6332 9.76903 9.76469 13.2984 9.76469 18.0043C9.76469 21.7521 11.5 25.6398 18 26.5Z"
    fill="#243327"
  />
  <path
    d="M28 9.00283C26.891 9.00283 25.9983 8.12283 26 7.00284C26.0017 5.9124 26.8996 5.0011 28 5.00284C29.1056 5.00284 30.0017 5.89327 30 7.00284C29.9983 8.10196 29.1039 9.00283 28 9.00283ZM28 8.00283C28.6803 8.00283 29 7.58605 29 7.00283C29 6.36112 28.6407 6.00283 28 6.00283C27.5 6.00284 26.9962 6.28032 27 7.00283C27.0048 7.89949 27.6835 8.00283 28 8.00283Z"
    fill="#243327"
  />
</svg>
