<svg
  width="36"
  height="36"
  viewBox="0 0 36 36"
  fill="none"
  xmlns="http://www.w3.org/2000/svg"
>
  <path
    d="M29.9809 24.7173C28.0573 24.7173 26.3637 25.7114 25.3794 27.2109L11.1566 19.9571C11.3894 19.3478 11.5229 18.69 11.5229 18C11.5229 17.308 11.389 16.6483 11.1551 16.0378C11.17 16.0315 11.1858 16.0287 11.2007 16.0208L25.3798 8.78952C26.3641 10.289 28.0577 11.2831 29.9813 11.2831C33.0156 11.2831 35.4847 8.81394 35.4847 5.77963C35.4847 2.74531 33.0152 0.276184 29.9809 0.276184C26.9466 0.276184 24.4775 2.74491 24.4775 5.77963C24.4775 6.46967 24.6106 7.12742 24.8434 7.73634L10.6635 14.968C10.6489 14.9755 10.6371 14.9854 10.6233 14.994C9.63948 13.4922 7.94469 12.4966 6.0191 12.4966C2.98439 12.4966 0.515656 14.9653 0.515656 18C0.515656 21.0343 2.98439 23.5034 6.0191 23.5034C7.94272 23.5034 9.63633 22.5097 10.6206 21.0103L24.8434 28.2637C24.6106 28.8726 24.4775 29.5307 24.4775 30.2208C24.4775 33.2547 26.9466 35.7238 29.9809 35.7238C33.0152 35.7238 35.4843 33.2547 35.4843 30.2204C35.4843 27.1861 33.0152 24.7173 29.9809 24.7173ZM29.9809 1.45777C32.3642 1.45777 34.3027 3.39636 34.3027 5.77963C34.3027 8.16289 32.3642 10.1015 29.9809 10.1015C27.5976 10.1015 25.659 8.16289 25.659 5.77963C25.659 3.39636 27.5976 1.45777 29.9809 1.45777ZM6.0191 22.3219C3.63623 22.3219 1.69724 20.3833 1.69724 18C1.69724 15.6171 3.63583 13.6781 6.0191 13.6781C8.40236 13.6781 10.3409 15.6167 10.3409 18C10.3409 20.3833 8.40236 22.3219 6.0191 22.3219ZM29.9809 34.5422C27.5976 34.5422 25.659 32.6036 25.659 30.2204C25.659 27.8371 27.5976 25.8985 29.9809 25.8985C32.3642 25.8985 34.3027 27.8371 34.3027 30.2204C34.3027 32.6036 32.3642 34.5422 29.9809 34.5422Z"
    fill="#243327"
  />
</svg>
