<svg
  width="36"
  height="36"
  viewBox="0 0 36 36"
  fill="none"
  xmlns="http://www.w3.org/2000/svg"
>
  <path
    d="M35.2797 0.557095C34.9943 0.283804 34.647 0.102322 34.2752 0.0323265C33.9034 -0.0376684 33.5215 0.00649602 33.1707 0.160031L1.3139 14.033C0.897457 14.2143 0.545184 14.5402 0.309797 14.962C0.07441 15.3838 -0.0314336 15.8787 0.00810507 16.3728C0.0476437 16.8668 0.230438 17.3333 0.529135 17.7026C0.827832 18.0719 1.22637 18.324 1.66511 18.4212L10.312 20.3383V32.1693C10.3077 32.6245 10.4274 33.0705 10.6556 33.449C10.8837 33.8274 11.2096 34.1207 11.5907 34.2905C11.8459 34.4089 12.1198 34.4703 12.3965 34.4712C12.6669 34.4702 12.9345 34.4098 13.1836 34.2933C13.4328 34.1768 13.6586 34.0067 13.848 33.7927L18.7841 28.3212L26.0672 35.4256C26.4425 35.7951 26.9268 35.9994 27.4288 36C27.647 35.9997 27.8638 35.9616 28.0713 35.887C28.4137 35.7666 28.7215 35.5489 28.9642 35.2555C29.2069 34.9621 29.376 34.6032 29.4545 34.2148L35.9471 2.80998C36.0319 2.4027 36.0145 1.97747 35.8968 1.58035C35.7792 1.18324 35.5658 0.829376 35.2797 0.557095ZM1.3836 16.2375C1.36643 16.0721 1.40006 15.9052 1.47905 15.7637C1.55805 15.6221 1.6778 15.5143 1.81893 15.4575L31.0207 2.7408L10.8423 18.8949L1.93591 16.9204C1.78797 16.892 1.65297 16.8092 1.55275 16.6853C1.45253 16.5613 1.39294 16.4036 1.3836 16.2375ZM12.8715 32.7104C12.775 32.8175 12.6519 32.8904 12.518 32.9199C12.3841 32.9494 12.2453 32.9343 12.1191 32.8764C11.9929 32.8184 11.8851 32.7204 11.8093 32.5945C11.7334 32.4686 11.6929 32.3207 11.6929 32.1693V21.4039L17.7454 27.3079L12.8715 32.7104ZM34.6011 2.46804L28.1085 33.8729C28.0818 34.0021 28.0252 34.1214 27.9444 34.2191C27.8636 34.3168 27.7612 34.3896 27.6474 34.4303C27.5336 34.471 27.4121 34.4782 27.295 34.4512C27.1779 34.4242 27.0692 34.364 26.9794 34.2765L12.1081 19.7699L34.4895 1.85209C34.5484 1.93902 34.589 2.03946 34.6083 2.14604C34.6276 2.25263 34.6251 2.36265 34.6011 2.46804Z"
    fill="#243327"
  />
  <!-- "white" -->
</svg>
